<svg width="146" height="72" viewBox="0 0 146 72" fill="none" xmlns="http://www.w3.org/2000/svg">
<path d="M23.96 1V22.84H46.92C53.64 22.84 62.04 26.76 62.04 36.84V71H84.44V32.92L53.08 1H23.96Z" fill="black"/>
<path d="M1 22.84V71H23.96V22.84H1Z" fill="black"/>
<path d="M84.44 1V22.84H109.08C116.92 22.84 123.08 27.88 123.08 36.84V71H145.48V32.92L114.12 1H84.44Z" fill="black"/>
<path d="M1 22.84V71H23.96V22.84M1 22.84C1 22.84 40.2 22.84 46.92 22.84M1 22.84H23.96M23.96 22.84V1H53.08L84.44 32.92V71H62.04M23.96 22.84H46.92M62.04 71C62.04 71 62.04 46.92 62.04 36.84M62.04 71V36.84M62.04 36.84C62.04 26.76 53.64 22.84 46.92 22.84M84.44 22.84V1H114.12L145.48 32.92V71H123.08M84.44 22.84C84.44 22.84 101.24 22.84 109.08 22.84M84.44 22.84H109.08M109.08 22.84C116.92 22.84 123.08 27.88 123.08 36.84M123.08 36.84C123.08 45.8 123.08 71 123.08 71M123.08 36.84V71" stroke="black"/>
<path d="M135.96 6.88C135.96 4.23555 138.076 2.12 140.72 2.12C143.364 2.12 145.48 4.23555 145.48 6.88C145.48 9.52444 143.207 11.64 140.72 11.64C138.233 11.64 135.96 9.52444 135.96 6.88Z" stroke="black"/>
<path d="M139.541 4.908H140.549C140.769 4.908 140.969 4.928 141.149 4.968C141.333 5.004 141.489 5.068 141.617 5.16C141.745 5.248 141.843 5.366 141.911 5.514C141.979 5.662 142.013 5.848 142.013 6.072C142.009 6.32 141.967 6.522 141.887 6.678C141.807 6.83 141.709 6.954 141.593 7.05C141.477 7.142 141.343 7.21 141.191 7.254V7.266C141.207 7.282 141.231 7.312 141.263 7.356C141.299 7.396 141.329 7.432 141.353 7.464L142.511 9H141.917L140.729 7.374H140.045V9H139.541V4.908ZM141.503 6.156C141.503 5.988 141.481 5.852 141.437 5.748C141.397 5.64 141.335 5.558 141.251 5.502C141.171 5.446 141.071 5.408 140.951 5.388C140.831 5.368 140.695 5.358 140.543 5.358H140.045V6.924H140.639C140.795 6.924 140.927 6.904 141.035 6.864C141.143 6.824 141.231 6.77 141.299 6.702C141.367 6.63 141.417 6.548 141.449 6.456C141.481 6.364 141.499 6.264 141.503 6.156Z" fill="black"/>
</svg>
